<?xml version="1.0" standalone="no"?>
<!DOCTYPE svg PUBLIC "-//W3C//DTD SVG 20010904//EN"
 "http://www.w3.org/TR/2001/REC-SVG-20010904/DTD/svg10.dtd">
<svg version="1.0" xmlns="http://www.w3.org/2000/svg"
 width="200.000000pt" height="200.000000pt" viewBox="0 0 200.000000 200.000000"
 preserveAspectRatio="xMidYMid meet">
<metadata>
Created by potrace 1.11, written by Peter Selinger 2001-2013
</metadata>
<g transform="translate(0.000000,200.000000) scale(0.100000,-0.100000)"
fill="#000000" stroke="none">
<path d="M0 1000 l0 -1000 1000 0 1000 0 0 1000 0 1000 -1000 0 -1000 0 0
-1000z m1747 205 c94 -47 139 -140 131 -270 -9 -133 -68 -210 -185 -240 -58
-15 -68 -15 -125 0 -118 30 -177 107 -186 240 -11 180 85 295 248 295 51 0 78
-6 117 -25z m-1107 -35 l0 -50 -140 0 -140 0 0 -50 0 -49 128 -3 127 -3 0 -45
0 -45 -127 -3 -128 -3 0 -59 0 -59 143 -3 142 -3 3 -47 3 -48 -200 0 -201 0 0
260 0 260 195 0 195 0 0 -50z m179 13 c5 -21 21 -92 36 -158 15 -66 29 -127
32 -135 3 -8 16 38 29 102 12 65 28 143 34 173 l11 55 60 0 c53 0 59 -2 64
-22 3 -13 20 -94 38 -180 l33 -158 40 178 40 177 57 3 c31 2 57 0 57 -3 0 -3
-31 -118 -70 -256 -38 -137 -70 -252 -70 -255 0 -3 -26 -4 -57 -2 l-58 3 -34
178 c-20 97 -38 177 -41 177 -3 0 -21 -80 -40 -178 l-36 -177 -54 -3 -55 -3
-69 248 c-38 136 -71 254 -74 261 -3 9 12 12 57 12 l60 0 10 -37z"/>
<path d="M1559 1115 c-41 -22 -63 -79 -63 -160 1 -109 38 -161 121 -171 49 -6
101 20 127 65 14 24 19 53 20 105 0 84 -22 139 -65 161 -35 19 -106 19 -140 0z"/>
</g>
</svg>
